<?xml version="1.0" encoding="utf-8"?>
<svg xmlns="http://www.w3.org/2000/svg" xmlns:dc="http://purl.org/dc/elements/1.1/" xmlns:cc="http://creativecommons.org/ns#" xmlns:rdf="http://www.w3.org/1999/02/22-rdf-syntax-ns#" xmlns:xlink="http://www.w3.org/1999/xlink" width="139.42285" height="214.4967" viewBox="0 0 36.888965 56.752255" version="1.1" ><title>Novanet Icon</title><defs><linearGradient id="blue-gradient"><stop style="stop-color:#56afcc;stop-opacity:1" offset="0"/><stop style="stop-color:#a9e3f2;stop-opacity:1" offset="1"/></linearGradient><linearGradient xlink:href="#blue-gradient" id="blue-gradient-for-icon" x1="75.021339" y1="211.53458" x2="75.601181" y2="2.9380765" gradientUnits="userSpaceOnUse" gradientTransform="matrix(0.26458333,0,0,0.26458333,0,2.8650213)" /><filter style="color-interpolation-filters:sRGB" id="drop-shadow"><feFlood flood-opacity="0.498039" flood-color="rgb(0,0,0)" result="flood" /><feComposite in="flood" in2="SourceGraphic" operator="in" result="composite1"/><feGaussianBlur in="composite1" stdDeviation="0.3" result="blur"/><feOffset dx="-0.6" dy="0.6" result="offset" /><feComposite in="SourceGraphic" in2="offset" operator="over" result="fbSourceGraphic" /><feColorMatrix result="fbSourceGraphicAlpha" in="fbSourceGraphic" values="0 0 0 -1 0 0 0 0 -1 0 0 0 0 -1 0 0 0 0 1 0"/><feFlood flood-opacity="0.498039" flood-color="rgb(0,0,0)" result="flood" in="fbSourceGraphic"/><feComposite in2="fbSourceGraphic" in="flood" operator="in" result="composite1"/><feGaussianBlur in="composite1" stdDeviation="0.1" result="blur" /><feOffset dx="0.1" dy="-0.1" result="offset"/><feComposite in2="offset" in="fbSourceGraphic" operator="over" result="composite2" /></filter></defs><metadata><rdf:RDF><cc:Work rdf:about=""><dc:format>image/svg+xml</dc:format><dc:type rdf:resource="http://purl.org/dc/dcmitype/StillImage" /><dc:title>Novanet Icon</dc:title><dc:date>2017-05-25</dc:date><dc:creator><cc:Agent><dc:title>Brad Dewar</dc:title></cc:Agent></dc:creator><dc:publisher><cc:Agent><dc:title>Novanet, Inc.</dc:title></cc:Agent></dc:publisher><dc:identifier>http://novanet.ca/images/novanet-icon.svg</dc:identifier><dc:contributor><cc:Agent><dc:title>norex</dc:title></cc:Agent></dc:contributor><cc:license rdf:resource="" /></cc:Work></rdf:RDF></metadata><g aria-label="novanet" transform="translate(0.4412885,-3.123096)"><path aria-label="o burst" d="m 27.467057,3.7791775 a 3.2080729,3.2080729 0 0 0 -3.208073,3.2080728 3.2080729,3.2080729 0 0 0 1.559078,2.747636 L 22.725228,20.114098 a 11.641664,11.641664 0 0 0 -2.683041,-0.327629 11.641664,11.641664 0 0 0 -3.70675,0.617017 l -0.7028,-1.605587 a 3.8033851,3.8033851 0 0 0 1.23455,-2.798279 3.8033851,3.8033851 0 0 0 -3.803385,-3.803385 3.8033851,3.8033851 0 0 0 -3.8033854,3.803385 3.8033851,3.8033851 0 0 0 3.8033854,3.803386 3.8033851,3.8033851 0 0 0 0.961181,-0.128675 l 0.631486,1.442806 A 11.641664,11.641664 0 0 0 8.4005207,31.428136 11.641664,11.641664 0 0 0 11.838037,39.678794 L 4.63951,50.514826 A 2.9104166,2.9104166 0 0 0 3.7703125,50.378917 2.9104166,2.9104166 0 0 0 0.85989582,53.289334 2.9104166,2.9104166 0 0 0 3.7703125,56.199751 2.9104166,2.9104166 0 0 0 6.6807291,53.289334 2.9104166,2.9104166 0 0 0 6.1215902,51.578842 L 13.242602,40.860119 a 11.641664,11.641664 0 0 0 5.609477,2.136302 L 18.70015,51.76798 a 3.5222656,3.5222656 0 0 0 -2.643249,3.40651 3.5222656,3.5222656 0 0 0 3.522265,3.522266 3.5222656,3.5222656 0 0 0 3.522266,-3.522266 3.5222656,3.5222656 0 0 0 -2.577621,-3.393075 l 0.151929,-8.743653 a 11.641664,11.641664 0 0 0 6.871933,-2.710945 c 0.0016,0.0019 0.0024,0.0038 0.0041,0.0057 l 2.283582,2.461863 a 2.960026,2.960026 0 0 0 -0.31781,1.33377 2.960026,2.960026 0 0 0 2.960026,2.960026 2.960026,2.960026 0 0 0 2.960026,-2.960026 2.960026,2.960026 0 0 0 -2.960026,-2.960026 2.960026,2.960026 0 0 0 -1.354955,0.331245 L 28.88916,39.091764 c -0.01794,-0.01934 -0.03872,-0.03372 -0.05788,-0.05116 a 11.641664,11.641664 0 0 0 2.852574,-7.612468 11.641664,11.641664 0 0 0 -7.221265,-10.760067 l 3.12229,-10.47843 A 3.2080729,3.2080729 0 0 0 30.67513,6.9872503 3.2080729,3.2080729 0 0 0 27.467057,3.7791775 Z m 0,1.7859374 A 1.4221353,1.4221353 0 0 1 28.889192,6.9872503 1.4221353,1.4221353 0 0 1 27.467057,8.4093857 1.4221353,1.4221353 0 0 1 26.044922,6.9872503 1.4221353,1.4221353 0 0 1 27.467057,5.5651149 Z M 13.063802,14.18061 a 1.81901,1.81901 0 0 1 1.81901,1.81901 1.81901,1.81901 0 0 1 -1.81901,1.819011 1.81901,1.81901 0 0 1 -1.81901,-1.819011 1.81901,1.81901 0 0 1 1.81901,-1.81901 z m 6.978385,8.913151 a 8.3343744,8.3343744 0 0 1 8.334375,8.334375 8.3343744,8.3343744 0 0 1 -8.334375,8.334375 8.3343744,8.3343744 0 0 1 -8.334375,-8.334375 8.3343744,8.3343744 0 0 1 8.334375,-8.334375 z m 12.435417,20.058724 a 0.97565108,0.97565108 0 0 1 0.975651,0.975651 0.97565108,0.97565108 0 0 1 -0.975651,0.975651 0.97565108,0.97565108 0 0 1 -0.975651,-0.975651 0.97565108,0.97565108 0 0 1 0.975651,-0.975651 z M 3.7703125,52.156071 a 1.1330741,1.1330741 0 0 1 1.1332641,1.133263 1.1330741,1.1330741 0 0 1 -1.1332641,1.133263 1.1330741,1.1330741 0 0 1 -1.1332642,-1.133263 1.1330741,1.1330741 0 0 1 1.1332642,-1.133263 z m 15.8088535,1.282091 a 1.7363281,1.7363281 0 0 1 1.736329,1.736328 1.7363281,1.7363281 0 0 1 -1.736329,1.736328 1.7363281,1.7363281 0 0 1 -1.736328,-1.736328 1.7363281,1.7363281 0 0 1 1.736328,-1.736328 z" style="display:inline;fill:url(#blue-gradient-for-icon);fill-opacity:1;stroke-width:0.26458332;filter:url(#drop-shadow)"/></g></svg>
