<?xml version="1.0" encoding="utf-8"?>
<svg xmlns="http://www.w3.org/2000/svg" xmlns:dc="http://purl.org/dc/elements/1.1/" xmlns:xlink="http://www.w3.org/1999/xlink" viewBox="0 4 150 58" version="1.1" role="img" aria-labelledby="title desc"><title>Novanet Logo</title><desc>Novanet, Inc.</desc><defs><linearGradient id="blue-gradient"><stop style="stop-color:#56afcc;stop-opacity:1" offset="0"/><stop style="stop-color:#a9e3f2;stop-opacity:1" offset="1"/></linearGradient><linearGradient xlink:href="#blue-gradient" id="blue-gradient-for-icon" x1="75.021" y1="211.534" x2="75.601" y2="2.938" gradientUnits="userSpaceOnUse" gradientTransform="matrix(0.264,0,0,0.264,15.694,-0.190)"/><filter style="color-interpolation-filters:sRGB" id="drop-shadow"><feFlood flood-opacity="0.498" flood-color="rgb(128,128,128)" result="flood"/><feComposite in="flood" in2="SourceGraphic" operator="in" result="composite1"/><feGaussianBlur in="composite1" stdDeviation="0.3" result="blur"/><feOffset dx="-0.6" dy="0.6" result="offset"/><feComposite in="SourceGraphic" in2="offset" operator="over" result="fbSourceGraphic"/><feColorMatrix result="fbSourceGraphicAlpha" in="fbSourceGraphic" values="0 0 0 -1 0 0 0 0 -1 0 0 0 0 -1 0 0 0 0 1 0"/><feFlood flood-opacity="0.498" flood-color="rgb(128,128,128)" result="flood" in="fbSourceGraphic"/><feComposite in2="fbSourceGraphic" in="flood" operator="in" result="composite1"/><feGaussianBlur in="composite1" stdDeviation="0.1" result="blur"/><feOffset dx="0.1" dy="-0.1" result="offset"/><feComposite in2="offset" in="fbSourceGraphic" operator="over" result="composite2"/></filter></defs><metadata><dc:format>image/svg+xml</dc:format><dc:type>StillImage</dc:type><dc:title>Novanet Logo</dc:title><dc:date>2017-05-25</dc:date><dc:creator>Brad Dewar</dc:creator><dc:publisher>Novanet, Inc.</dc:publisher><dc:identifier>http://novanet.ca/images/novanet-logo.svg</dc:identifier><dc:contributor>norex</dc:contributor></metadata><g role="presentation" aria-hidden="true" style="fill:#ffffff;fill-opacity:1;stroke:none;filter:url(#drop-shadow)"><path aria-label="n" id="novanet-n" d="m 12.976,21.317 q 4.050,0 6.098,2.411 2.047,2.366 2.047,6.189 V 43.844 q 0,0.364 -0.273,0.637 -0.273,0.273 -0.637,0.273 -0.409,0 -0.682,-0.273 -0.227,-0.273 -0.227,-0.637 V 30.100 q 0,-3.094 -1.638,-5.051 -1.592,-2.002 -4.869,-2.002 -2.002,0 -3.959,0.955 -1.911,0.955 -3.140,2.593 -1.228,1.638 -1.228,3.504 V 43.844 q 0,0.364 -0.273,0.637 -0.273,0.273 -0.637,0.273 -0.409,0 -0.682,-0.273 -0.227,-0.273 -0.227,-0.637 V 22.956 q 0,-0.364 0.273,-0.637 0.273,-0.273 0.637,-0.273 0.409,0 0.637,0.273 0.273,0.273 0.273,0.637 v 3.049 q 1.319,-2.047 3.686,-3.367 2.411,-1.319 4.823,-1.319 z"/><path aria-label="o burst" style="fill:url(#blue-gradient-for-icon);fill-opacity:1;stroke:none" transform="translate(15.421,1.712)" d="m 27.467,3.779 a 3.208,3.208 0 0 0 -3.208,3.208 3.208,3.208 0 0 0 1.559,2.747 L 22.725,20.114 a 11.641,11.641 0 0 0 -2.683,-0.327 11.641,11.641 0 0 0 -3.706,0.617 l -0.702,-1.605 a 3.803,3.803 0 0 0 1.234,-2.798 3.803,3.803 0 0 0 -3.803,-3.803 3.803,3.803 0 0 0 -3.803,3.803 3.803,3.803 0 0 0 3.803,3.803 3.803,3.803 0 0 0 0.961,-0.128 l 0.631,1.442 A 11.641,11.641 0 0 0 8.400,31.428 11.641,11.641 0 0 0 11.838,39.678 L 4.639,50.514 A 2.910,2.910 0 0 0 3.770,50.378 2.910,2.910 0 0 0 0.859,53.289 2.910,2.910 0 0 0 3.770,56.199 2.910,2.910 0 0 0 6.680,53.289 2.910,2.910 0 0 0 6.121,51.578 L 13.242,40.860 a 11.641,11.641 0 0 0 5.609,2.136 L 18.700,51.767 a 3.522,3.522 0 0 0 -2.643,3.406 3.522,3.522 0 0 0 3.522,3.522 3.522,3.522 0 0 0 3.522,-3.522 3.522,3.522 0 0 0 -2.577,-3.393 l 0.151,-8.743 a 11.641,11.641 0 0 0 6.871,-2.710 c 0.001,0.001 0.002,0.003 0.004,0.005 l 2.283,2.461 a 2.960,2.960 0 0 0 -0.317,1.333 2.960,2.960 0 0 0 2.960,2.960 2.960,2.960 0 0 0 2.960,-2.960 2.960,2.960 0 0 0 -2.960,-2.960 2.960,2.960 0 0 0 -1.354,0.331 L 28.889,39.091 c -0.017,-0.019 -0.038,-0.033 -0.057,-0.051 a 11.641,11.641 0 0 0 2.852,-7.612 11.641,11.641 0 0 0 -7.221,-10.760 l 3.122,-10.478 A 3.208,3.208 0 0 0 30.675,6.987 3.208,3.208 0 0 0 27.467,3.779 Z m 0,1.785 A 1.422,1.422 0 0 1 28.889,6.987 1.422,1.422 0 0 1 27.467,8.409 1.422,1.422 0 0 1 26.044,6.987 1.422,1.422 0 0 1 27.467,5.565 Z M 13.063,14.180 a 1.819,1.819 0 0 1 1.819,1.819 1.819,1.819 0 0 1 -1.819,1.819 1.819,1.819 0 0 1 -1.819,-1.819 1.819,1.819 0 0 1 1.819,-1.819 z m 6.978,8.913 a 8.334,8.334 0 0 1 8.334,8.334 8.334,8.334 0 0 1 -8.334,8.334 8.334,8.334 0 0 1 -8.334,-8.334 8.334,8.334 0 0 1 8.334,-8.334 z m 12.435,20.058 a 0.975,0.975 0 0 1 0.975,0.975 0.975,0.975 0 0 1 -0.975,0.975 0.975,0.975 0 0 1 -0.975,-0.975 0.975,0.975 0 0 1 0.975,-0.975 z M 3.770,52.156 a 1.133,1.133 0 0 1 1.133,1.133 1.133,1.133 0 0 1 -1.133,1.133 1.133,1.133 0 0 1 -1.133,-1.133 1.133,1.133 0 0 1 1.133,-1.133 z m 15.808,1.282 a 1.736,1.736 0 0 1 1.736,1.736 1.736,1.736 0 0 1 -1.736,1.736 1.736,1.736 0 0 1 -1.736,-1.736 1.736,1.736 0 0 1 1.736,-1.736 z"/><path aria-label="v" d="m 66.646,21.226 q 0.273,0 0.546,0.227 0.318,0.182 0.318,0.500 0,0.273 -0.136,0.546 l -9.056,21.661 q -0.091,0.273 -0.364,0.455 -0.227,0.136 -0.500,0.136 -0.273,0 -0.546,-0.136 -0.227,-0.182 -0.318,-0.455 L 47.487,22.546 q -0.091,-0.273 -0.091,-0.409 0,-0.364 0.227,-0.637 0.273,-0.273 0.728,-0.273 0.227,0 0.455,0.182 0.273,0.136 0.364,0.409 l 8.237,19.796 8.282,-19.796 q 0.227,-0.591 0.955,-0.591 z"/><path aria-label="a" d="m 88.611,22.045 q 0.409,0 0.637,0.273 0.273,0.273 0.273,0.637 V 43.844 q 0,0.364 -0.273,0.637 -0.273,0.273 -0.637,0.273 -0.409,0 -0.682,-0.273 -0.227,-0.273 -0.227,-0.637 v -4.095 q -1.137,2.320 -3.504,3.913 -2.366,1.547 -5.233,1.547 -3.003,0 -5.415,-1.547 -2.411,-1.592 -3.777,-4.323 -1.365,-2.776 -1.365,-6.189 0,-3.367 1.365,-6.052 1.410,-2.730 3.822,-4.232 2.411,-1.547 5.369,-1.547 2.958,0 5.324,1.547 2.366,1.547 3.413,4.141 v -4.050 q 0,-0.364 0.227,-0.637 0.273,-0.273 0.682,-0.273 z m -9.556,21.434 q 2.502,0 4.505,-1.319 2.047,-1.365 3.185,-3.731 1.137,-2.366 1.137,-5.278 0,-2.776 -1.137,-5.096 -1.137,-2.320 -3.185,-3.640 -2.002,-1.365 -4.505,-1.365 -2.502,0 -4.550,1.319 -2.002,1.274 -3.140,3.595 -1.137,2.275 -1.137,5.187 0,2.912 1.137,5.278 1.137,2.366 3.140,3.731 2.002,1.319 4.550,1.319 z"/><use aria-label="n" xlink:href="#novanet-n" transform="translate(91.552,0)"/>       <path aria-label="e" d="m 135.306,39.293 q 0.318,0 0.546,0.273 0.227,0.227 0.227,0.546 0,0.318 -0.182,0.546 -1.501,2.002 -3.731,3.276 -2.229,1.274 -4.778,1.274 -3.413,0 -6.052,-1.456 -2.639,-1.456 -4.141,-4.141 -1.456,-2.684 -1.456,-6.234 0,-3.640 1.410,-6.371 1.456,-2.776 3.822,-4.232 2.366,-1.456 5.051,-1.456 2.685,0 4.960,1.183 2.320,1.137 3.777,3.458 1.456,2.320 1.547,5.734 0,0.364 -0.273,0.682 -0.273,0.273 -0.637,0.273 h -17.884 v 0.591 q 0,2.821 1.137,5.187 1.137,2.320 3.367,3.686 2.229,1.365 5.369,1.365 2.184,0 4.095,-1.046 1.956,-1.092 3.049,-2.730 0.318,-0.409 0.773,-0.409 z m -9.283,-16.155 q -1.683,0 -3.458,0.910 -1.729,0.864 -3.094,2.639 -1.319,1.729 -1.774,4.232 h 16.747 v -0.409 q -0.227,-2.320 -1.501,-3.959 -1.228,-1.683 -3.094,-2.548 -1.820,-0.864 -3.822,-0.864 z"/><path aria-label="t" d="m 147.860,21.863 q 0.318,0 0.591,0.273 0.273,0.273 0.273,0.591 0,0.364 -0.273,0.637 -0.227,0.227 -0.591,0.227 h -5.005 v 16.200 q 0,2.002 0.682,2.684 0.728,0.637 1.820,0.637 0.182,0 0.500,-0.091 0.364,-0.091 0.591,-0.091 0.318,0 0.546,0.273 0.227,0.227 0.227,0.546 0,0.409 -0.546,0.728 -0.546,0.273 -1.274,0.273 -1.137,0 -1.911,-0.136 -0.773,-0.182 -1.638,-1.228 -0.819,-1.092 -0.819,-3.504 V 23.593 h -3.731 q -0.318,0 -0.591,-0.273 -0.273,-0.273 -0.273,-0.591 0,-0.364 0.227,-0.591 0.273,-0.273 0.637,-0.273 h 3.731 v -5.779 q 0,-0.364 0.273,-0.637 0.273,-0.273 0.637,-0.273 0.409,0 0.637,0.273 0.273,0.273 0.273,0.637 v 5.779 z"/></g></svg>
