<svg version="1" xmlns="http://www.w3.org/2000/svg" width="1141.333" height="1141.333" viewBox="0 0 856.000000 856.000000"><path d="M560.5 11.3c-10.8 2.8-23.2 11.9-29.6 21.8-5.6 8.7-7.9 16.9-7.5 26.8.2 4.9 1 10.2 1.9 12.4.9 2 1.6 4 1.6 4.2.1.3 1.2 2.7 2.5 5.3 2.5 4.9 8.9 12.2 14 15.8l2.9 2.1-1.7 6.4c-1 3.5-2.7 9.1-3.7 12.4-1.1 3.3-2.1 6.9-2.3 8-.3 1.1-1.6 5.8-3.1 10.5s-2.8 8.9-3 9.5c-.1.5-.5 1.7-.8 2.5-.3.8-2.6 8.5-5.1 17-6.5 22.8-19.5 66.3-20.3 68-.3.8-.7 2-.8 2.6-.2.6-1.1 3.8-2 7-1 3.3-1.8 6.3-1.9 6.9-.1.5-.6 2-1 3.3-.8 2.4-1.5 2.4-14.5-.3-9.3-1.8-34.1-2.5-45.1-1.2-13.2 1.6-27.6 4.7-33.5 7.1-3.3 1.4-3.5 1.4-4.7-.7-1.1-2-9.8-21.6-9.8-22.1 0-.2 1.8-2.2 4-4.7 5-5.5 11.5-18.6 13-26.1 4-20.3-3.1-40.2-19.5-54.5-11.5-9.9-26.1-15.1-39.9-14-9.8.8-11.8 1.3-19.9 5.3-11 5.4-21 14.5-25.8 23.4-.9 1.6-2.1 3.5-2.6 4.2-.9 1.2-4.3 11.2-5 14.8-.6 3-.7 12.6-.1 17 1.4 10.4 8.2 23.5 16.7 31.9 14.2 14.2 30.4 19.5 50.7 16.6 3.4-.5 4.2-.3 4.7 1.2.3 1 2.4 5.8 4.6 10.8 2.5 5.8 3.6 9.1 2.8 9.4-.6.2-1.6.8-2.2 1.3-.5.5-3.7 2.5-7 4.4-10.1 5.9-20.5 14.3-31 24.8-10.8 10.9-16.3 17.7-24.4 30.1-7 10.7-16.2 29.7-19.7 41-1.6 4.9-4.5 15.5-4.9 17.5-.3 1.4-.7 3.6-1 5-1.5 7.5-2.8 20.6-2.8 29-.1 8.9 1.1 26.9 1.8 28 .2.3.6 2.6 1 5 2.9 19.9 15.1 49.5 27.9 68 4.1 5.9 15.4 19.9 18.3 22.6 1.3 1.2 2.3 2.4 2.3 2.8 0 .5-60.2 91.5-62.3 94.1-.4.5-8.2 12.2-17.3 26-9 13.7-17 25.7-17.7 26.5-.6.8-1.8 2.8-2.6 4.2-.8 1.5-2.2 3.7-3.3 4.7-1 1.1-1.8 2.4-1.8 2.8-.1 1.6-4 5.4-4.9 4.8-3-1.8-15.2-2.1-21.3-.5-4.4 1.2-12.7 5.3-16.2 8-9 7-16.1 18.8-17.3 29-.3 2.5-.7 5.1-.8 5.9-.1.8.2 3.7.8 6.5 2.3 13.1 12.9 26.7 25.2 32.5 3.6 1.7 7.3 3.2 8.3 3.4.9.1 2.2.5 2.7.8.6.3 4 .5 7.6.4 22.7-.8 42.2-20 43.4-42.8.3-7.2-4.6-23.6-7.8-25.8-.4-.3 4.7-8.9 11.5-19 13-19.5 14-21.1 15.9-24.7.7-1.2 1.6-2.2 2.1-2.2.4 0 .8-.7.8-1.5s.5-1.5 1-1.5c.6 0 1-.5 1-1 0-1.2 4.1-7.3 5.3-7.8.4-.2.7-.7.7-1.2 0-.7 8.6-13.9 10.8-16.5.5-.6 1.1-1.5 1.3-2.1.8-2 30.4-45.9 31.1-46.2.5-.2.8-.8.8-1.4 0-1.2 6.1-10.2 7.2-10.6.4-.2.8-.8.8-1.2 0-.5 3.7-6.5 8.3-13.3l8.3-12.4 3.9 2.5c2.2 1.4 4.2 2.8 4.5 3.1 1.5 1.8 27 14.5 31.5 15.7.6.1 4.2 1.4 8.1 2.8 3.9 1.4 8.2 2.7 9.5 3 2.4.5 4.3.9 8.9 2 3.7.9 7.9 1.6 13 2.2 2.5.4 4.7.8 4.8.9.4.3.3 16.8-.4 52.5-1.1 65.8-1.4 77.4-1.9 78.9-.3 1-1.2 1.8-2 1.8-5.2 0-20 10.6-26.9 19.2-2.9 3.8-9.3 17.4-9.6 20.6 0 .3-.1.6-.1.7-.8 1.7-.3 17.4.7 21.1 1.6 6.3 4.7 13.7 5.7 13.7.4 0 .7.5.7 1 0 2 6.3 9.5 11.7 14 4.5 3.8 16.2 10.9 17.8 10.9.3 0 3 .5 6.1 1.1 19 4 38.9-4.1 51.7-20.8 3.9-5.1 9.1-15.8 10.3-21.6 2.1-9.5-.7-25.9-5.9-34.9-6.8-11.5-20-22.6-29.7-25-2.4-.6-2.6-1-2.4-6.4.1-3.2.5-23.6.9-45.3 1.1-68.1 1.4-80.2 1.7-80.5.2-.2 3-.6 6.3-.9 6.7-.7 14.2-1.9 24.9-4.1 4.1-.8 20.9-6.3 25.3-8.2 2.1-.9 4-1.7 4.3-1.8 1.4-.2 19.2-9.6 22.9-12.1 2.4-1.6 5.8-3.8 7.5-4.9 1.8-1.1 5.2-3.7 7.7-5.7l4.4-3.7 4.5 4.8c31.1 33.4 30.2 32.2 29.4 34.1-4.1 9.8-4.9 22.3-1.9 31 2.6 7.7 7.6 15.1 13.8 20.5 9.9 8.5 18.1 11.5 30.4 11.2 4.8-.2 9.5-.7 10.3-1.2.8-.5 2.1-1 2.8-1.1 2.4-.4 12.1-6.7 15.8-10.3 4.3-4.2 8.4-10.2 10.7-15.6 9.7-23-3.5-49.8-28.7-58.5-7.3-2.5-20.7-2.2-28.1.7l-5 1.9-3-3.2c-1.6-1.8-7.9-8.5-14-15-6-6.5-12.2-13.1-13.7-14.8-1.6-1.6-2.8-3.4-2.8-4 0-.6 2.2-3.8 4.8-7.1 15.5-19.4 29.4-49.6 33.6-73 .3-1.7.8-4.1 1.1-5.5 2.7-12 2.5-53.7-.2-58.2-.2-.4-.6-2.2-.8-4-.3-1.8-1.2-5.8-2-8.8-.9-3-1.8-6.4-2-7.5-1.6-7.3-13.4-33.1-18.7-40.7-1-1.4-1.8-2.9-1.8-3.2 0-.6-2.6-4.5-5.7-8.5-13-17-25-29.2-38.5-39.1-4.6-3.4-9-6.7-9.9-7.3-2.1-1.6-23.1-12.8-26.6-14.2-.2-.1 5.8-20.3 7.6-26 .2-.6.5-1.5.7-2 .1-.6 4.6-15.6 9.9-33.5 13.4-45.5 16.6-56.1 17.5-59 .5-1.4 2-6.6 3.5-11.5 7.5-25.4 7.7-26 11-26.3 13.8-1.2 29.8-12.2 37-25.4 5.6-10.4 7.6-23.4 5-33.3-3.8-14.6-16.9-29.1-31.3-34.6-6.9-2.6-19.6-3.4-26.7-1.6zm19 27.6c16.8 7.7 17.4 29.9 1.1 38.3-10.6 5.4-22.7.9-28.5-10.8-4.2-8.3-1-19.2 7.3-25.2 6.4-4.6 13.4-5.4 20.1-2.3zm-214 130.9c6.2 3.2 12.7 10.3 14.2 15.7 2.4 8.9 1.6 15.7-2.7 22.5-12.4 19.3-37.9 17.3-48.1-3.7-6-12.4.6-28.1 14.6-35 4.1-2 6.1-2.3 11.5-2 3.9.2 8.1 1.2 10.5 2.5zm110 132.5c13.6 1.9 26.1 5.8 40 12.7 25.8 12.7 45.6 33 57.7 59 2.9 6.3 7.3 18.6 8.2 23.3.2.7.6 2.3.9 3.7 1.6 6.5 2.1 11.6 2.1 25 0 19.4-1 26.1-6.3 41.3-6.9 20-16.9 35.8-31.1 49.6-5.7 5.5-16.4 14.1-17.5 14.1-.3 0-2.1 1.1-3.8 2.4-7.1 5.3-25.1 12.7-38.9 16.1-13.7 3.3-37.4 3.8-50.2 1-7.4-1.5-19.9-5.3-24.5-7.3-2-.9-3.8-1.6-4.1-1.7-2.7-.8-11.1-5.4-19-10.5-7.7-4.9-20.9-17-27.6-25.1-10.5-12.9-22.3-37.2-24.8-51.4-.3-1.7-.8-4.1-1.1-5.5-1.8-8.8-2.4-26.1-1.2-36.5 2-17.8 10.4-40.5 20.5-55.2 2-3 4.2-6.2 4.7-7.1 1.6-2.6 18.7-19.5 23-22.8 17.1-13 43.9-24 60.2-24.8 1.8-.1 3.4-.4 3.7-.7.7-.7 23.6-.3 29.1.4zm180.3 304.8c6 4.7 7.3 13.1 3.1 19.3-4.7 6.9-12.6 8.5-19.7 3.9-5.3-3.5-6.8-7.1-6.3-15 .1-2.6 5.5-9.1 8.5-10.4 3.7-1.6 11.2-.4 14.4 2.2zM224.7 744.2c8.3 7.8 7.3 20.1-2.2 26.6-12.7 8.7-30.3-5.4-24.7-19.8 1.7-4.4 7.3-9.8 10.9-10.6 1.6-.3 3.3-.7 3.8-.8 2-.6 9.8 2.4 12.2 4.6zm235.4 16.3c11 3.9 18.4 14.4 18.2 25.7 0 2-.4 4.5-.8 5.5-.9 2-1.2 2.9-1.4 4.2 0 .5-2.1 3.1-4.6 5.9-8 8.9-19.3 11.7-29 7.1-13-6.1-19.2-19.7-14.6-31.9 5.3-13.9 19.3-21 32.2-16.5z"/></svg>